<svg width="24" height="24" viewBox="0 0 24 24" fill="none" xmlns="http://www.w3.org/2000/svg">
<path d="M4.50002 4.5H19.5C19.721 4.5 19.933 4.5878 20.0893 4.74408C20.2456 4.90036 20.3334 5.11232 20.3334 5.33333V18.6667C20.3334 18.8877 20.2456 19.0996 20.0893 19.2559C19.933 19.4122 19.721 19.5 19.5 19.5H4.50002C4.27901 19.5 4.06704 19.4122 3.91076 19.2559C3.75448 19.0996 3.66669 18.8877 3.66669 18.6667V5.33333C3.66669 5.11232 3.75448 4.90036 3.91076 4.74408C4.06704 4.5878 4.27901 4.5 4.50002 4.5ZM18.6667 8.03167L12.06 13.9483L5.33335 8.01333V17.8333H18.6667V8.03167ZM5.75919 6.16667L12.0509 11.7183L18.2517 6.16667H5.75919Z" fill="#10BD99"/>
</svg>
