<svg width="24" height="24" viewBox="0 0 24 24" fill="none" xmlns="http://www.w3.org/2000/svg">
<path d="M5.33335 7.11922V17.8059L9.55419 15.9976L14.5542 18.4976L18.6667 16.7334V6.04755L19.7525 5.58255C19.8159 5.55537 19.8851 5.54436 19.9538 5.5505C20.0225 5.55665 20.0886 5.57976 20.1462 5.61776C20.2038 5.65576 20.251 5.70746 20.2837 5.76822C20.3163 5.82898 20.3334 5.8969 20.3334 5.96589V17.8334L14.5 20.3334L9.50002 17.8334L4.24752 20.0842C4.18412 20.1114 4.11495 20.1224 4.04624 20.1163C3.97753 20.1101 3.91142 20.087 3.85384 20.049C3.79627 20.011 3.74903 19.9593 3.71636 19.8986C3.68369 19.8378 3.66663 19.7699 3.66669 19.7009V7.83339L5.33335 7.11922ZM15.5359 11.3692L12 14.9042L8.46419 11.3692C7.76501 10.6699 7.28889 9.77901 7.09603 8.80912C6.90317 7.83924 7.00224 6.83395 7.3807 5.92037C7.75917 5.00679 8.40003 4.22595 9.22226 3.67658C10.0445 3.12721 11.0112 2.83398 12 2.83398C12.9889 2.83398 13.9556 3.12721 14.7778 3.67658C15.6 4.22595 16.2409 5.00679 16.6193 5.92037C16.9978 6.83395 17.0969 7.83924 16.904 8.80912C16.7112 9.77901 16.235 10.6699 15.5359 11.3692ZM12 12.5476L14.3567 10.1901C14.823 9.72392 15.1405 9.12998 15.2692 8.48335C15.3979 7.83671 15.332 7.16644 15.0797 6.55729C14.8275 5.94815 14.4002 5.42749 13.852 5.06118C13.3038 4.69486 12.6593 4.49934 12 4.49934C11.3407 4.49934 10.6962 4.69486 10.148 5.06118C9.59983 5.42749 9.17259 5.94815 8.92033 6.55729C8.66806 7.16644 8.60211 7.83671 8.73081 8.48335C8.85951 9.12998 9.17708 9.72392 9.64335 10.1901L12 12.5476Z" fill="#10BD99"/>
</svg>
