<svg width="18" height="18" viewBox="0 0 18 18" fill="none" xmlns="http://www.w3.org/2000/svg">
<path d="M9.00001 17.3333C4.39751 17.3333 0.666672 13.6025 0.666672 8.99996C0.666672 4.39746 4.39751 0.666626 9.00001 0.666626C13.6025 0.666626 17.3333 4.39746 17.3333 8.99996C17.3333 13.6025 13.6025 17.3333 9.00001 17.3333ZM9.00001 15.6666C10.7681 15.6666 12.4638 14.9642 13.7141 13.714C14.9643 12.4638 15.6667 10.7681 15.6667 8.99996C15.6667 7.23185 14.9643 5.53616 13.7141 4.28591C12.4638 3.03567 10.7681 2.33329 9.00001 2.33329C7.2319 2.33329 5.5362 3.03567 4.28596 4.28591C3.03572 5.53616 2.33334 7.23185 2.33334 8.99996C2.33334 10.7681 3.03572 12.4638 4.28596 13.714C5.5362 14.9642 7.2319 15.6666 9.00001 15.6666ZM8.16667 11.5H9.83334V13.1666H8.16667V11.5ZM8.16667 4.83329H9.83334V9.83329H8.16667V4.83329Z" fill="#717A8D"/>
</svg>
