<svg width="32" height="32" viewBox="0 0 32 32" fill="none" xmlns="http://www.w3.org/2000/svg">
<rect width="32" height="32" rx="8" fill="#717A8D"/>
<g clip-path="url(#clip0_611_7305)">
<path fill-rule="evenodd" clip-rule="evenodd" d="M15.1818 19.2174C13.9091 19.1305 12.7273 18.7827 11.7273 18C11.6364 17.9131 11.4545 17.8261 11.3636 17.7392C10.9091 17.3044 10.9091 16.8696 11.2727 16.4348C11.5454 16 12.0909 15.9131 12.5454 16.174C12.6364 16.174 12.7273 16.2609 12.8182 16.3479C14.7273 17.5653 17.2727 17.5653 19.0909 16.3479C19.2727 16.174 19.4545 16.087 19.7273 16.087C20.1818 16 20.5454 16.174 20.8182 16.5218C21.0909 16.9566 21.0909 17.3914 20.7273 17.7392C20.1818 18.2609 19.5454 18.6087 18.9091 18.8696C18.2727 19.1305 17.5454 19.2174 16.8182 19.3044C16.9091 19.3914 17 19.4783 17 19.5653C18 20.5218 18.9091 21.3914 19.9091 22.3479C20.2727 22.6957 20.2727 23.0435 20.0909 23.3914C19.9091 23.8261 19.4545 24.087 19 24C18.7273 24 18.5454 23.8261 18.3636 23.6522C17.6364 22.9566 16.9091 22.2609 16.1818 21.5653C16 21.3914 15.9091 21.3914 15.7273 21.5653C15 22.2609 14.2727 22.9566 13.5454 23.7392C13.1818 24.087 12.8182 24.087 12.4545 23.9131C12 23.7392 11.8182 23.3044 11.8182 22.8696C11.8182 22.6087 12 22.3479 12.1818 22.174C13.0909 21.3044 14.0909 20.3479 15 19.4783C15 19.3914 15.0909 19.3914 15.1818 19.2174Z" fill="#EBEFF1"/>
<path fill-rule="evenodd" clip-rule="evenodd" d="M16 16.087C13.7273 16.087 11.8182 14.2609 11.8182 12C11.8182 9.82609 13.7273 8 16 8C18.3636 8 20.1818 9.82609 20.1818 12.087C20.2727 14.3478 18.3636 16.087 16 16.087ZM18.0909 12C18.0909 10.8696 17.1818 10 16 10C14.8182 10 13.9091 10.8696 13.9091 12C13.9091 13.1304 14.8182 14 16 14C17.1818 14 18.0909 13.1304 18.0909 12Z" fill="#EBEFF1"/>
</g>
<defs>
<clipPath id="clip0_611_7305">
<rect width="10" height="16" fill="white" transform="translate(11 8)"/>
</clipPath>
</defs>
</svg>
