<svg width="32" height="32" viewBox="0 0 32 32" fill="none" xmlns="http://www.w3.org/2000/svg">
<rect width="32" height="32" rx="8" fill="#717A8D"/>
<path d="M17.8862 12.2001H8V22.8667H10.7517V19.3964H16.0242L18.4299 22.8667H21.5111L18.8583 19.3805C19.6822 19.2526 20.2753 18.9487 20.6379 18.4689C21.0003 17.9892 21.1816 17.2216 21.1816 16.1981V15.3985C21.1816 14.7908 21.1157 14.311 21.0003 13.9432C20.885 13.5754 20.6873 13.2555 20.4072 12.9677C20.1106 12.6958 19.781 12.5039 19.3856 12.376C18.9902 12.264 18.4958 12.2001 17.8862 12.2001ZM17.4414 17.0457H10.7517V14.5509H17.4414C17.8203 14.5509 18.0839 14.6149 18.2158 14.7268C18.3475 14.8387 18.4299 15.0467 18.4299 15.3505V16.2461C18.4299 16.5659 18.3475 16.7738 18.2158 16.8857C18.0839 16.9977 17.8203 17.0457 17.4414 17.0457Z" fill="#EBEFF1"/>
<path d="M22.4003 12.2001C23.2835 12.2001 24 11.4838 24 10.6001C24 9.71647 23.2835 9.00012 22.4003 9.00012C21.5165 9.00012 20.8 9.71647 20.8 10.6001C20.8 11.4838 21.5165 12.2001 22.4003 12.2001Z" fill="#EBEFF1"/>
</svg>
