<svg width="32" height="32" viewBox="0 0 32 32" fill="none" xmlns="http://www.w3.org/2000/svg">
<rect width="32" height="32" rx="8" fill="#717A8D"/>
<path d="M8.99625 14.6569L18.5429 10.779C19.5243 10.3383 22.647 9.10445 22.647 9.10445C22.647 9.10445 24.1638 8.57565 23.9853 9.89766C23.9853 10.4265 23.6284 12.4535 23.2716 14.5687L22.2009 20.9143C22.2009 20.9143 22.1117 21.8838 21.3979 21.9719C20.6842 22.1482 19.5243 21.4431 19.3458 21.2669C19.1674 21.1787 16.2231 19.3279 15.2417 18.4466C14.974 18.1822 14.6171 17.7415 15.2417 17.1246C16.7584 15.8026 18.4536 14.1281 19.5243 13.0705C20.0596 12.5417 20.5057 11.4841 18.4536 12.8061L12.8327 16.6839C12.8327 16.6839 12.2082 17.1246 10.9591 16.6839C9.71001 16.2433 8.28248 15.8026 8.28248 15.8026C8.28248 15.8026 7.30106 15.2738 8.99625 14.6569Z" fill="#EBEFF1"/>
</svg>
